<!-- public/google-icon.svg -->
<svg xmlns="http://www.w3.org/2000/svg" width="48" height="48" viewBox="0 0 48 48">
  <path fill="#4285F4" d="M24 9.5c3.24 0 5.9 1.2 8.06 3.14L38 7.9C34.48 4.83 29.6 3 24 3 14.73 3 7.12 8.73 4.58 16.73l7.96 6.2C14.43 15.42 18.89 9.5 24 9.5z"/>
  <path fill="#34A853" d="M24 43c5.48 0 10.04-1.87 13.53-4.95l-6.4-5.2C28.58 34.84 26.44 35.5 24 35.5c-5.01 0-9.25-3.37-10.76-8H5.08v6.3C8.46 36.77 15.71 43 24 43z"/>
  <path fill="#FBBC05" d="M13.24 27c-.38-1.14-.6-2.36-.6-3.6s.22-2.46.6-3.6V13H5.08C3.39 15.97 2.5 19.33 2.5 22.5s.89 6.53 2.58 9.5l8.16-5.5z"/>
  <path fill="#EA4335" d="M24 13.5c2.44 0 4.67.88 6.41 2.33l6.41-6.41C33.81 5.9 29.24 3.5 24 3.5 18.89 3.5 14.43 7.42 12.54 12.96L20.5 19h3.5V13.5z"/>
</svg>
